#!OML:ASF \\sashay\E\Suitcase\Project 1\Capture day 1\Session 1\Male1.ASF
:FULLY-SPECIFIED
:DEGREES
58
root -0.698532 17.6145 10.0616 8.10072 1.13491 -4.62794
lowerback -2.39203 -2.00276 2.16948
upperback -0.94383 -2.7507 4.58991
thorax 0.495762 -1.37652 3.42603
lowerneck -12.8859 -5.74433 -5.12173
upperneck 33.5823 -8.49841 3.6947
head 13.9727 -3.88089 1.02531
rclavicle 3.08116e-015 1.59028e-015
rhumerus -28.4755 -7.0851 -77.9032
rradius 26.4698
rwrist -12.8983
rhand -16.7051 15.7418
rfingers 7.12502
rthumb 9.51989 -14.0231
lclavicle 3.08116e-015 1.59028e-015
lhumerus -31.4922 4.17381 88.9632
lradius 29.2212
lwrist -7.21352
lhand 0.63565 45.3448
lfingers 7.12502
lthumb 26.1991 73.5566
rfemur -5.47436 0.0923757 25.6891
rtibia 9.29717
rfoot -9.89997 -12.4195
rtoes 10.6238
lfemur -8.35696 -1.73009 -13.6615
ltibia 17.3944
lfoot -15.0581 5.50353
ltoes -3.94609
59
root -0.700689 17.6158 10.0496 8.07607 1.28642 -4.66583
lowerback -2.50821 -2.04636 2.32358
upperback -0.665154 -2.83393 4.67042
thorax 0.847684 -1.41842 3.40975
lowerneck -12.699 -6.04633 -5.31747
upperneck 34.0501 -8.89569 3.57515
head 14.171 -4.09036 0.949312
rclavicle 2.3556e-014 -2.62396e-014
rhumerus -27.9738 -7.34346 -77.7158
rradius 26.5906
rwrist -13.352
rhand -16.7778 14.9652
rfingers 7.12502
rthumb 9.44976 -14.8029
lclavicle 2.3556e-014 -2.62396e-014
lhumerus -31.2142 3.96785 89.1549
lradius 29.4731
lwrist -7.05568
lhand 0.200064 44.8465
lfingers 7.12502
lthumb 25.782 73.1196
rfemur -5.45533 -0.0527002 25.7594
rtibia 9.23883
rfoot -9.85305 -12.4272
rtoes 10.5374
lfemur -8.45649 -1.72977 -13.5888
ltibia 17.498
lfoot -15.0821 5.37094
ltoes -4.0504
60
root -0.707561 17.6138 10.0406 7.91281 1.01883 -4.52404
lowerback -2.38287 -1.97084 2.16109
upperback -0.369796 -2.73913 4.7139
thorax 1.08689 -1.37238 3.54768
lowerneck -12.5577 -6.33717 -5.53432
upperneck 34.5579 -9.27642 3.46356
head 14.4022 -4.29229 0.879537
rclavicle 2.56432e-014 -2.06736e-014
rhumerus -27.3261 -7.50455 -77.5574
rradius 26.3593
rwrist -13.1982
rhand -16.9095 16.0864
rfingers 7.12502
rthumb 9.32271 -13.6874
lclavicle 2.56432e-014 -2.06736e-014
lhumerus -30.8691 4.06041 89.2769
lradius 29.6026
lwrist -7.31802
lhand 0.177333 44.6964
lfingers 7.12502
lthumb 25.7602 72.9726
rfemur -5.305 0.178463 25.6152
rtibia 9.19502
rfoot -9.78095 -12.435
rtoes 10.5326
lfemur -8.2917 -1.60372 -13.7523
ltibia 17.5314
lfoot -15.0713 5.46333
ltoes -4.03202
61
root -0.702622 17.6169 10.033 7.90543 1.14059 -4.10379
lowerback -2.37121 -2.13036 1.94607
upperback -0.236756 -2.95174 4.60627
thorax 1.2322 -1.48003 3.54655
lowerneck -12.1295 -6.48533 -5.51865
upperneck 35.0193 -9.50864 3.30838
head 14.5222 -4.41514 0.787746
rclavicle -1.03368e-014 9.54166e-015
rhumerus -27.5169 -7.6005 -77.4764
rradius 27.2398
rwrist -13.038
rhand -16.6083 15.2904
rfingers 7.12502
rthumb 9.61326 -14.4702
lclavicle -1.03368e-014 9.54166e-015
lhumerus -30.8718 3.93417 89.2178
lradius 30.0096
lwrist -7.04067
lhand -0.0113217 44.8747
lfingers 7.12502
lthumb 25.5795 73.177
rfemur -5.36558 -0.0110803 25.1168
rtibia 9.33378
rfoot -9.86316 -12.4117
rtoes 10.4538
lfemur -8.25472 -1.75868 -14.241
ltibia 17.4257
lfoot -15.0074 5.44101
ltoes -4.07666
62
root -0.715886 17.6131 10.0277 7.83409 0.894542 -4.50841
lowerback -2.17164 -2.00642 2.30506
upperback -0.111958 -2.79477 4.83878
thorax 1.23581 -1.40072 3.5973
lowerneck -11.8277 -6.76092 -5.84339
upperneck 35.5274 -9.85786 3.21914
head 14.7307 -4.61763 0.754449
rclavicle -4.27387e-015 2.94201e-014
rhumerus -27.4674 -7.46254 -77.2176
rradius 27.6544
rwrist -13.8521
rhand -17.024 15.5051
rfingers 7.12502
rthumb 9.21217 -14.2737
lclavicle -4.27387e-015 2.94201e-014
lhumerus -30.8592 3.46757 89.5466
lradius 30.1231
lwrist -6.61626
lhand -0.123538 44.385
lfingers 7.12502
lthumb 25.472 72.7027
rfemur -5.48095 0.296312 25.6325
rtibia 9.61765
rfoot -9.97076 -12.4128
rtoes 10.6102
lfemur -8.10549 -1.43895 -13.7497
ltibia 17.2534
lfoot -14.9097 5.35763
ltoes -4.03523
63
root -0.706575 17.6172 10.0188 7.91395 0.994869 -4.29516
lowerback -1.97831 -2.10962 2.31043
upperback -0.174094 -2.91914 4.87977
thorax 1.07113 -1.46318 3.64155
lowerneck -11.3222 -6.93588 -5.9713
upperneck 36.0111 -10.0579 2.94986
head 14.8476 -4.76135 0.647695
rclavicle 2.39536e-014 -5.88403e-014
rhumerus -27.2839 -7.21856 -76.9763
rradius 27.5411
rwrist -14.012
rhand -17.0286 15.3142
rfingers 7.12502
rthumb 9.20777 -14.4648
lclavicle 2.39536e-014 -5.88403e-014
lhumerus -31.2841 3.18797 89.7106
lradius 30.7199
lwrist -6.29441
lhand -0.255566 44.3785
lfingers 7.12502
lthumb 25.3456 72.7142
rfemur -5.61643 0.163148 25.3162
rtibia 9.67803
rfoot -9.97766 -12.4016
rtoes 10.4916
lfemur -8.22917 -1.64026 -14.0284
ltibia 17.292
lfoot -14.8975 5.43843
ltoes -3.98757
64
root -0.705993 17.6182 10.0105 7.83101 0.974161 -4.04072
lowerback -1.7111 -2.22683 2.18427
upperback -0.158419 -3.0596 4.86491
thorax 0.949772 -1.53441 3.70326
lowerneck -10.6774 -7.05014 -5.94168
upperneck 36.384 -10.1952 2.64305
head 14.8621 -4.86795 0.517066
rclavicle -2.38542e-014 -9.54166e-015
rhumerus -27.4842 -7.19185 -76.8713
rradius 28.0092
rwrist -13.8473
rhand -16.9229 14.8967
rfingers 7.12502
rthumb 9.30978 -14.8777
lclavicle -2.38542e-014 -9.54166e-015
lhumerus -31.7488 3.44901 89.6215
lradius 31.3577
lwrist -6.41108
lhand -0.293577 44.6163
lfingers 7.12502
lthumb 25.3091 72.9571
rfemur -5.60866 0.135669 25.0107
rtibia 9.79016
rfoot -10.0226 -12.3896
rtoes 10.509
lfemur -8.11901 -1.72598 -14.3248
ltibia 17.2235
lfoot -14.8442 5.48051
ltoes -3.90746
65
root -0.71807 17.6121 9.97444 7.75402 0.910802 -4.66091
lowerback -1.28489 -2.21653 2.72288
upperback 0.125246 -3.05049 5.20318
thorax 0.99295 -1.52922 3.76474
lowerneck -10.8221 -7.27405 -6.04547
upperneck 36.7079 -10.4299 2.39253
head 15.0555 -5.00507 0.380649
rclavicle -1.6201e-014 -2.3059e-014
rhumerus -26.8946 -6.81949 -76.7523
rradius 28.0237
rwrist -14.5249
rhand -17.4974 15.5147
rfingers 7.12502
rthumb 8.75534 -14.2837
lclavicle -1.6201e-014 -2.3059e-014
lhumerus -31.1576 3.38185 89.8425
lradius 31.4348
lwrist -6.3165
lhand -0.277251 44.0507
lfingers 7.12502
lthumb 25.3248 72.3894
rfemur -5.87582 0.295851 25.8126
rtibia 10.1404
rfoot -10.0671 -12.402
rtoes 10.784
lfemur -8.11398 -1.64139 -13.5565
ltibia 17.0378
lfoot -14.5865 5.44387
ltoes -3.85824
66
root -0.70958 17.6155 9.98153 7.66853 1.0041 -4.07848
lowerback -1.47764 -2.37541 2.341
upperback 0.464477 -3.28694 5.11021
thorax 1.4773 -1.65061 3.85952
lowerneck -10.6689 -7.4267 -6.08658
upperneck 36.925 -10.6183 2.23313
head 15.1282 -5.11158 0.293232
rclavicle 4.65156e-014 -3.73715e-014
rhumerus -26.434 -6.93639 -76.6231
rradius 28.3516
rwrist -14.5531
rhand -17.5041 15.5619
rfingers 7.12502
rthumb 8.7489 -14.2367
lclavicle 4.65156e-014 -3.73715e-014
lhumerus -31.3164 2.50341 90.1023
lradius 32.2812
lwrist -5.14393
lhand -0.16703 44.5603
lfingers 7.12502
lthumb 25.4304 72.884
rfemur -5.86826 -0.398944 25.1326
rtibia 10.4532
rfoot -10.2475 -11.8715
rtoes 10.6502
lfemur -7.87068 -1.56767 -14.2506
ltibia 16.872
lfoot -14.619 5.22981
ltoes -4.00002
67
root -0.707825 17.6144 9.97337 7.66762 0.974006 -3.95111
lowerback -1.60173 -2.40131 2.33622
upperback 0.821284 -3.35104 5.18638
thorax 1.9233 -1.68437 3.92603
lowerneck -10.629 -7.64665 -6.28254
upperneck 37.0686 -10.8929 2.18231
head 15.218 -5.25733 0.256917
rclavicle -1.39149e-014 -1.51076e-014
rhumerus -26.0235 -7.66521 -76.2833
rradius 28.3973
rwrist -13.8422
rhand -17.6226 16.0715
rfingers 7.12502
rthumb 8.63455 -13.7319
lclavicle -1.39149e-014 -1.51076e-014
lhumerus -30.8925 2.51409 90.2412
lradius 32.5818
lwrist -5.04459
lhand -0.226492 45.0084
lfingers 7.12502
lthumb 25.3734 73.3401
rfemur -6.0897 -0.633018 24.9763
rtibia 10.8232
rfoot -10.3692 -11.6175
rtoes 10.5876
lfemur -7.76387 -1.57346 -14.41
ltibia 16.6527
lfoot -14.4827 5.24202
ltoes -4.13171
68
root -0.712974 17.6135 9.95566 7.63206 0.84621 -3.99236
lowerback -1.49214 -2.30733 2.50616
upperback 1.07047 -3.23992 5.29058
thorax 2.11007 -1.62804 3.94295
lowerneck -10.3791 -7.91336 -6.58894
upperneck 37.1739 -11.2464 2.20802
head 15.2621 -5.44559 0.267407
rclavicle -1.55052e-014 -2.06736e-014
rhumerus -25.9672 -8.27889 -75.8996
rradius 29.2829
rwrist -13.8793
rhand -17.6306 15.5952
rfingers 7.12502
rthumb 8.62685 -14.2085
lclavicle -1.55052e-014 -2.06736e-014
lhumerus -30.8845 2.11713 90.5082
lradius 33.1916
lwrist -5.22504
lhand 0.300506 45.0771
lfingers 7.12502
lthumb 25.8782 73.3362
rfemur -6.37213 -0.354065 25.0329
rtibia 11.2775
rfoot -10.5254 -11.7517
rtoes 10.6084
lfemur -7.61234 -1.61663 -14.3519
ltibia 16.3271
lfoot -14.2173 5.36034
ltoes -4.14552
